<?xml version="1.0" encoding="utf-8"?>
<!-- Uploaded to: SVG Repo, www.svgrepo.com, Generator: SVG Repo Mixer Tools -->
<svg fill="#000000" width="800px" height="800px" viewBox="0 0 512 512" id="_09_Expand" data-name="09 Expand" xmlns="http://www.w3.org/2000/svg">
  <g id="Group_24" data-name="Group 24">
    <g id="Group_23" data-name="Group 23">
      <path id="Path_14" data-name="Path 14" d="M178.375,287.812,73.094,393.094,32,352A31.981,31.981,0,0,0,0,384v96a31.981,31.981,0,0,0,32,32h96a31.981,31.981,0,0,0,32-32l-41.094-41.062L224.187,333.626ZM480,0H384a31.991,31.991,0,0,0-32,32l41.094,41.094L287.812,178.375l45.812,45.812L438.905,118.921,480,160a31.981,31.981,0,0,0,32-32V32A31.991,31.991,0,0,0,480,0Zm0,352-41.094,41.094L333.625,287.812l-45.812,45.812L393.094,438.936,352,480a31.981,31.981,0,0,0,32,32h96a31.981,31.981,0,0,0,32-32V384A31.981,31.981,0,0,0,480,352ZM160,32A31.991,31.991,0,0,0,128,0H32A31.991,31.991,0,0,0,0,32v96a31.981,31.981,0,0,0,32,32l41.094-41.078L178.375,224.188l45.812-45.812L118.906,73.094Z" fill-rule="evenodd"/>
    </g>
  </g>
</svg>